<svg width="14" height="14" viewBox="0 0 14 14" fill="none" xmlns="http://www.w3.org/2000/svg">
<path fill-rule="evenodd" clip-rule="evenodd" d="M7.00006 8.17833L11.7142 12.8925C11.8714 13.0443 12.0819 13.1283 12.3004 13.1264C12.5189 13.1245 12.7279 13.0369 12.8824 12.8823C13.0369 12.7278 13.1246 12.5188 13.1265 12.3003C13.1283 12.0818 13.0444 11.8713 12.8926 11.7142L8.17839 7L12.8926 2.28583C13.0444 2.12866 13.1283 1.91816 13.1265 1.69967C13.1246 1.48117 13.0369 1.27216 12.8824 1.11765C12.7279 0.963144 12.5189 0.875503 12.3004 0.873605C12.0819 0.871706 11.8714 0.955701 11.7142 1.1075L7.00006 5.82167L2.28589 1.1075C2.12801 0.959454 1.91873 0.878638 1.70233 0.882152C1.48593 0.885666 1.27938 0.973234 1.1264 1.12633C0.973412 1.27942 0.885989 1.48603 0.882628 1.70243C0.879267 1.91884 0.960232 2.12806 1.10839 2.28583L5.82172 7L1.10756 11.7142C1.02796 11.791 0.964479 11.883 0.920805 11.9847C0.877131 12.0863 0.854142 12.1957 0.853181 12.3063C0.852219 12.417 0.873304 12.5267 0.915205 12.6291C0.957105 12.7315 1.01898 12.8246 1.09723 12.9028C1.17547 12.9811 1.26851 13.0429 1.37093 13.0849C1.47334 13.1268 1.58307 13.1478 1.69372 13.1469C1.80437 13.1459 1.91372 13.1229 2.01539 13.0793C2.11706 13.0356 2.20902 12.9721 2.28589 12.8925L7.00006 8.17833Z" fill="black"/>
</svg>
